{"glyphs":{":":{"x_min":0,"x_max":168,"ha":168,"o":"m -7 0 l 15 155 l 102 155 l 80 0 z m 38 320 l 59 468 l 146 468 l 125 320 z"},"$":{"x_min":0,"x_max":466,"ha":466,"o":"m 52 371 l 86 619 l 136 662 l 174 619 l 146 421 z m 70 360 l 158 407 l 369 407 l 445 360 l 357 320 l 146 320 z m 341 101 l 370 306 l 463 349 l 428 101 l 378 58 z m 154 -79 l 164 -11 l 212 24 l 251 -12 l 241 -84 l 193 -120 z m 7 0 l 114 86 l 327 86 l 364 45 l 315 0 l 263 0 l 215 47 l 159 0 z m 157 678 l 204 720 l 260 720 l 303 671 l 361 720 l 473 720 l 427 634 l 191 634 z m 270 736 l 279 802 l 328 845 l 366 805 l 356 736 l 306 695 z"},"?":{"x_min":0,"x_max":392,"ha":392,"o":"m 36 0 l 58 155 l 145 155 l 123 0 z m 43 676 l 94 720 l 304 720 l 343 676 l 292 634 l 81 634 z m 277 421 l 305 619 l 355 662 l 392 619 l 357 371 z m 65 203 l 92 393 l 168 310 l 153 203 z m 111 407 l 261 407 l 336 362 l 248 320 l 187 320 z"},"'":{"x_min":0,"x_max":168,"ha":168,"o":"m 117 495 l 137 720 l 200 720 l 180 495 z"},"L":{"x_min":0,"x_max":498,"ha":498,"o":"m -7 14 l 40 349 l 121 306 l 92 101 z m 43 371 l 92 720 l 167 634 l 137 421 z m 332 101 l 361 306 l 455 349 l 408 14 z m 6 0 l 105 86 l 316 86 l 391 0 z"},"3":{"x_min":0,"x_max":504,"ha":504,"o":"m 66 720 l 361 720 l 399 676 l 349 634 l 138 634 z m 333 421 l 361 619 l 411 662 l 448 619 l 413 371 z m 288 101 l 317 306 l 410 349 l 375 101 l 326 58 z m -35 0 l 61 86 l 272 86 l 310 44 l 259 0 z m 17 360 l 106 407 l 317 407 l 392 360 l 305 320 l 94 320 z"},";":{"x_min":0,"x_max":177,"ha":177,"o":"m -65 -94 l 17 155 l 107 155 l 25 -94 z m 40 320 l 60 468 l 148 468 l 127 320 z"},"J":{"x_min":0,"x_max":500,"ha":500,"o":"m -7 14 l 40 349 l 121 306 l 92 101 z m 377 421 l 407 634 l 507 720 l 458 371 z m 332 101 l 361 306 l 455 349 l 408 14 z m 6 0 l 105 86 l 316 86 l 391 0 z"},"V":{"x_min":0,"x_max":499,"ha":499,"o":"m 45 371 l 92 706 l 167 619 l 139 421 z m 379 421 l 407 619 l 506 706 l 459 371 z m 43 359 l 153 329 l 215 180 l 189 -1 z m 211 0 l 237 180 l 341 329 l 459 358 z"},"\"":{"x_min":0,"x_max":272,"ha":272,"o":"m 117 495 l 137 720 l 200 720 l 180 495 z m 221 495 l 241 720 l 304 720 l 284 495 z"},"7":{"x_min":0,"x_max":504,"ha":504,"o":"m 335 421 l 363 619 l 462 706 l 415 371 z m 288 86 l 319 306 l 412 349 l 363 0 z m 64 720 l 449 720 l 350 634 l 139 634 z"},"S":{"x_min":0,"x_max":502,"ha":502,"o":"m 45 371 l 80 619 l 130 662 l 167 619 l 139 421 z m 145 676 l 196 720 l 509 720 l 402 634 l 184 634 z m 334 101 l 363 306 l 457 349 l 422 101 l 372 58 z m -7 0 l 100 86 l 318 86 l 356 44 l 306 0 z m 64 360 l 152 407 l 363 407 l 438 360 l 351 320 l 140 320 z"},"}":{"x_min":0,"x_max":266,"ha":266,"o":"m 32 -112 l 37 -75 l 48 -75 q 84 -75 96 -64 q 109 -52 114 -14 l 150 282 q 154 312 176 334 q 197 356 227 360 q 201 363 184 382 q 168 400 168 428 q 169 435 169 438 l 206 734 q 208 752 208 756 q 208 779 196 787 q 184 795 154 795 l 143 795 l 148 832 l 212 832 q 283 832 283 776 q 282 769 282 766 l 241 431 q 240 423 240 420 q 240 394 255 377 q 270 360 294 360 q 267 360 247 340 q 227 320 223 289 l 182 -46 q 174 -112 97 -112 z"},"Z":{"x_min":0,"x_max":414,"ha":414,"o":"m 63 0 l 116 86 l 271 86 l 346 0 z m -50 0 l 144 330 l 251 350 l 45 0 z m 215 456 l 370 720 l 464 720 l 259 365 z m 68 720 l 350 720 l 301 634 l 142 634 z"},")":{"x_min":0,"x_max":262,"ha":262,"o":"m 138 414 l 167 619 l 217 662 l 255 619 l 220 371 z m 94 101 l 122 299 l 217 349 l 182 101 l 132 58 z m -47 0 l 31 86 l 78 86 l 116 44 l 66 0 z m 54 720 l 167 720 l 205 676 l 155 634 l 108 634 z"},"&":{"x_min":0,"x_max":581,"ha":581,"o":"m 7 101 l 42 349 l 123 306 l 94 101 l 45 58 z m 45 371 l 80 619 l 130 662 l 167 619 l 139 421 z m 145 676 l 196 720 l 407 720 l 445 676 l 395 634 l 184 634 z m 56 44 l 107 86 l 318 86 l 356 44 l 306 0 l 95 0 z m 197 361 l 278 407 l 365 407 l 403 360 l 353 320 l 279 320 z m 382 421 l 395 512 l 445 557 l 483 512 l 470 420 l 418 373 z m 431 359 l 484 407 l 525 407 l 603 360 l 524 320 l 470 320 z m 336 101 l 365 305 l 414 345 l 453 304 l 424 100 l 373 59 z"},"_":{"x_min":0,"x_max":436,"ha":436,"o":"m 36 -27 l 36 0 l 396 0 l 396 -27 z"},"O":{"x_min":0,"x_max":501,"ha":501,"o":"m 7 101 l 42 349 l 123 306 l 94 101 l 45 58 z m 45 371 l 80 619 l 130 662 l 167 619 l 139 421 z m 145 676 l 196 720 l 407 720 l 445 676 l 395 634 l 184 634 z m 379 421 l 407 619 l 457 662 l 494 619 l 459 371 z m 334 101 l 363 306 l 456 349 l 422 101 l 372 58 z m 56 44 l 107 86 l 318 86 l 356 44 l 306 0 l 95 0 z"},"(":{"x_min":0,"x_max":259,"ha":259,"o":"m 7 101 l 42 349 l 123 306 l 94 101 l 45 58 z m 45 371 l 80 619 l 130 662 l 167 619 l 139 421 z m 145 676 l 196 720 l 309 720 l 231 634 l 184 634 z m 56 44 l 107 86 l 154 86 l 207 0 l 95 0 z"},"C":{"x_min":0,"x_max":444,"ha":444,"o":"m 7 101 l 42 349 l 122 299 l 94 101 l 45 58 z m 45 371 l 80 619 l 130 662 l 167 619 l 138 414 z m 145 676 l 196 720 l 494 720 l 395 634 l 184 634 z m 56 44 l 107 86 l 318 86 l 393 0 l 95 0 z"},"W":{"x_min":0,"x_max":829,"ha":829,"o":"m 706 414 l 737 634 l 836 720 l 787 371 z m 45 371 l 94 720 l 170 634 l 139 414 z m 378 410 l 412 648 l 465 720 l 499 648 l 465 410 l 416 371 z m 335 101 l 366 322 l 414 355 l 453 322 l 422 99 l 373 55 z m 7 99 l 42 352 l 122 298 l 94 99 l 45 56 z m 58 41 l 107 86 l 319 86 l 368 28 l 435 86 l 647 86 l 685 43 l 635 0 l 94 0 z m 662 99 l 690 299 l 785 352 l 750 99 l 702 57 z"},"A":{"x_min":0,"x_max":500,"ha":500,"o":"m -7 0 l 42 349 l 123 306 l 92 86 z m 45 371 l 92 706 l 167 619 l 139 421 z m 109 720 l 494 720 l 395 634 l 184 634 z m 379 421 l 407 619 l 507 706 l 460 371 z m 332 86 l 363 306 l 457 349 l 408 0 z m 64 360 l 152 407 l 363 407 l 438 360 l 351 320 l 140 320 z"},"Q":{"x_min":0,"x_max":501,"ha":501,"o":"m 7 101 l 42 349 l 123 306 l 94 101 l 45 58 z m 45 371 l 80 619 l 130 662 l 167 619 l 139 421 z m 145 676 l 196 720 l 407 720 l 445 676 l 395 634 l 184 634 z m 379 421 l 407 619 l 457 662 l 494 619 l 459 371 z m 334 101 l 363 306 l 456 349 l 422 101 l 372 58 z m 58 47 l 107 86 l 169 86 l 246 0 l 95 0 z m 196 86 l 316 86 l 407 -12 l 391 -128 z"},"-":{"x_min":0,"x_max":322,"ha":322,"o":"m -14 216 l 56 302 l 300 302 l 230 216 z"},"E":{"x_min":0,"x_max":442,"ha":442,"o":"m -7 14 l 40 349 l 121 306 l 92 101 z m 43 371 l 90 706 l 165 619 l 137 421 z m 107 720 l 492 720 l 393 634 l 182 634 z m 6 0 l 105 86 l 316 86 l 391 0 z m 62 360 l 150 407 l 361 407 l 436 360 l 349 320 l 138 320 z"},"8":{"x_min":0,"x_max":503,"ha":503,"o":"m 8 101 l 43 349 l 124 306 l 95 101 l 46 58 z m 46 371 l 81 619 l 131 662 l 168 619 l 140 421 z m 146 676 l 197 720 l 408 720 l 446 676 l 396 634 l 185 634 z m 380 421 l 408 619 l 458 662 l 495 619 l 460 371 z m 335 101 l 364 306 l 457 349 l 423 101 l 373 58 z m 57 44 l 108 86 l 319 86 l 357 44 l 307 0 l 96 0 z m 64 360 l 153 407 l 364 407 l 439 360 l 352 320 l 141 320 z"},"\\":{"x_min":0,"x_max":373,"ha":373,"o":"m 137 720 l 200 720 l 326 0 l 263 0 z"},"%":{"x_min":0,"x_max":893,"ha":893,"o":"m 22 450 l 46 620 l 98 662 l 136 619 l 112 450 l 62 407 z m 113 675 l 163 720 l 337 720 l 374 675 l 324 634 l 151 634 z m 314 450 l 338 620 l 386 663 l 425 621 l 401 451 l 350 407 z m 72 392 l 124 438 l 297 438 l 334 392 l 285 353 l 111 353 z m 446 428 l 665 720 l 768 720 l 482 341 z m 125 0 l 366 320 l 467 320 l 226 0 z m 468 104 l 492 273 l 544 316 l 582 273 l 558 103 l 507 60 z m 559 328 l 609 369 l 783 369 l 820 329 l 769 282 l 596 282 z m 760 104 l 783 273 l 832 317 l 871 274 l 847 104 l 796 61 z m 518 45 l 569 86 l 742 86 l 780 45 l 730 0 l 556 0 z"},",":{"x_min":0,"x_max":136,"ha":136,"o":"m -72 -94 l 10 155 l 100 155 l 18 -94 z"},"B":{"x_min":0,"x_max":500,"ha":500,"o":"m -7 14 l 40 349 l 121 306 l 92 101 z m 43 371 l 90 706 l 165 619 l 137 421 z m 107 720 l 405 720 l 443 676 l 393 634 l 182 634 z m 377 421 l 405 619 l 455 662 l 493 619 l 458 371 z m 332 101 l 361 306 l 455 349 l 420 101 l 370 58 z m 6 0 l 105 86 l 316 86 l 354 44 l 304 0 z m 62 360 l 150 407 l 361 407 l 436 360 l 349 320 l 138 320 z"},"K":{"x_min":0,"x_max":502,"ha":502,"o":"m -7 0 l 42 349 l 123 306 l 92 86 z m 45 371 l 94 720 l 169 634 l 139 421 z m 332 86 l 363 306 l 457 349 l 408 0 z m 64 360 l 152 407 l 363 407 l 438 360 l 351 320 l 140 320 z m 157 424 l 166 486 l 445 720 l 509 720 l 500 661 l 219 424 z"},"R":{"x_min":0,"x_max":500,"ha":500,"o":"m -7 14 l 40 349 l 121 306 l 92 101 z m 43 371 l 90 706 l 165 619 l 137 421 z m 107 720 l 405 720 l 443 676 l 393 634 l 182 634 z m 377 421 l 405 619 l 455 662 l 493 619 l 458 371 z m 62 360 l 150 407 l 361 407 l 436 360 l 349 320 l 138 320 z m 255 306 l 353 306 l 469 -1 l 332 100 z"},"T":{"x_min":0,"x_max":414,"ha":414,"o":"m 118 47 l 154 305 l 206 351 l 243 305 l 207 47 l 156 0 z m 169 404 l 199 616 l 250 663 l 287 616 l 257 404 l 208 362 z m 43 720 l 472 720 l 391 634 l 296 634 l 254 684 l 194 634 l 100 634 z"},"P":{"x_min":0,"x_max":502,"ha":502,"o":"m -7 0 l 42 349 l 123 306 l 92 86 z m 45 371 l 92 706 l 167 619 l 139 421 z m 109 720 l 407 720 l 445 676 l 395 634 l 184 634 z m 379 421 l 407 619 l 457 662 l 495 619 l 460 371 z m 64 360 l 152 407 l 363 407 l 438 360 l 351 320 l 140 320 z"},"M":{"x_min":0,"x_max":827,"ha":827,"o":"m -7 0 l 42 349 l 123 306 l 92 86 z m 45 371 l 92 706 l 167 619 l 139 421 z m 108 720 l 822 720 l 721 634 l 510 634 l 461 690 l 395 634 l 182 634 z m 707 421 l 735 619 l 834 705 l 787 371 z m 660 86 l 690 306 l 784 349 l 735 0 z m 376 398 l 408 621 l 457 665 l 494 619 l 463 398 l 415 365 z m 330 72 l 364 310 l 413 349 l 451 310 l 418 72 l 364 0 z"},".":{"x_min":0,"x_max":116,"ha":116,"o":"m -36 0 l -14 155 l 73 155 l 51 0 z"},"X":{"x_min":0,"x_max":440,"ha":440,"o":"m -29 0 l -19 73 l 164 350 l 209 350 l 194 248 l 32 0 z m 63 652 l 72 720 l 135 720 l 226 470 l 211 370 l 167 370 z m 232 370 l 246 470 l 409 720 l 469 720 l 459 649 l 278 370 z m 215 248 l 229 350 l 275 350 l 378 71 l 368 0 l 305 0 z"},"*":{"x_min":0,"x_max":363,"ha":363,"o":"m 14 437 l 28 492 l 161 563 l 196 534 l 190 486 l 62 416 z m 213 485 l 220 536 l 265 560 l 376 494 l 377 442 l 329 416 z m 172 585 l 191 715 l 240 748 l 280 714 l 261 583 l 212 551 z"},"Y":{"x_min":0,"x_max":500,"ha":500,"o":"m 163 50 l 198 301 l 287 301 l 252 50 l 198 0 z m 61 360 l 150 407 l 361 407 l 436 360 l 349 320 l 138 320 z m 43 371 l 92 720 l 167 634 l 137 421 z m 377 421 l 407 634 l 507 720 l 458 371 z"},"!":{"x_min":0,"x_max":174,"ha":174,"o":"m -7 0 l 15 155 l 102 155 l 80 0 z m 32 277 l 82 634 l 181 720 l 110 212 z"},"/":{"x_min":0,"x_max":557,"ha":557,"o":"m -43 0 l 198 320 l 299 320 l 59 0 z m 278 428 l 498 720 l 600 720 l 314 341 z"},"[":{"x_min":0,"x_max":267,"ha":267,"o":"m -7 14 l 40 349 l 121 306 l 92 101 z m 43 371 l 90 706 l 165 619 l 137 421 z m 6 0 l 105 86 l 134 86 l 209 0 z m 107 720 l 310 720 l 211 634 l 182 634 z"},"6":{"x_min":0,"x_max":503,"ha":503,"o":"m 10 101 l 45 349 l 126 306 l 97 101 l 48 58 z m 48 371 l 83 619 l 133 662 l 170 619 l 142 421 z m 148 676 l 199 720 l 493 720 l 398 634 l 187 634 z m 337 101 l 366 306 l 459 349 l 425 101 l 375 58 z m 59 44 l 110 86 l 321 86 l 359 44 l 309 0 l 98 0 z m 66 360 l 155 407 l 366 407 l 441 360 l 354 320 l 143 320 z"},"2":{"x_min":0,"x_max":503,"ha":503,"o":"m 8 101 l 43 349 l 124 306 l 95 101 l 46 58 z m 83 634 l 197 720 l 408 720 l 446 676 l 396 634 z m 380 421 l 408 619 l 458 662 l 495 619 l 460 371 z m 57 44 l 108 86 l 337 86 l 408 0 l 96 0 z m 64 360 l 153 407 l 364 407 l 439 360 l 352 320 l 141 320 z"},"{":{"x_min":0,"x_max":266,"ha":266,"o":"m 70 360 l 94 366 q 135 383 141 431 l 182 766 q 190 832 267 832 l 332 832 l 328 795 l 316 795 q 280 795 268 784 q 255 772 250 734 l 214 438 q 210 408 188 386 q 167 364 137 360 q 163 357 180 338 q 196 320 196 292 q 195 285 195 282 l 158 -14 q 157 -20 157 -25 q 157 -32 157 -35 q 157 -59 168 -67 q 179 -75 210 -75 l 221 -75 l 216 -112 l 152 -112 q 81 -112 81 -56 q 82 -49 82 -46 l 123 289 q 124 297 124 300 q 124 326 109 343 q 94 360 70 360 z"},"9":{"x_min":0,"x_max":503,"ha":503,"o":"m 377 414 l 406 619 l 456 662 l 493 619 l 458 371 z m 333 101 l 361 299 l 455 349 l 421 101 l 371 58 z m 10 0 l 106 86 l 317 86 l 355 44 l 305 0 z m 44 371 l 79 619 l 129 662 l 166 619 l 137 414 z m 144 676 l 195 720 l 406 720 l 444 676 l 394 634 l 183 634 z m 62 360 l 151 407 l 362 407 l 437 360 l 350 320 l 139 320 z"}," ":{"x_min":0,"x_max":290,"ha":290,"o":""},"I":{"x_min":0,"x_max":176,"ha":176,"o":"m 54 421 l 84 634 l 183 720 l 134 371 z m 7 86 l 38 306 l 131 349 l 82 0 z"},"H":{"x_min":0,"x_max":551,"ha":551,"o":"m -7 0 l 42 349 l 123 306 l 92 86 z m 45 371 l 94 720 l 169 634 l 139 421 z m 379 421 l 409 634 l 509 720 l 460 371 z m 64 360 l 152 407 l 363 407 l 438 360 l 351 320 l 140 320 z m 332 86 l 363 306 l 457 349 l 408 0 z"},"4":{"x_min":0,"x_max":504,"ha":504,"o":"m 45 371 l 94 720 l 169 634 l 139 421 z m 379 421 l 409 634 l 509 720 l 460 371 z m 332 86 l 363 306 l 456 349 l 407 0 z m 63 360 l 152 407 l 363 407 l 438 360 l 351 320 l 140 320 z"},"D":{"x_min":0,"x_max":500,"ha":500,"o":"m -7 14 l 40 349 l 121 306 l 92 101 z m 43 371 l 90 706 l 165 619 l 137 421 z m 107 720 l 405 720 l 443 676 l 393 634 l 182 634 z m 377 421 l 405 619 l 455 662 l 493 619 l 458 371 z m 332 101 l 361 306 l 455 349 l 420 101 l 370 58 z m 6 0 l 105 86 l 316 86 l 354 44 l 304 0 z"},"^":{"x_min":0,"x_max":548,"ha":548,"o":"m 57 174 l 295 595 l 534 174 l 462 174 l 295 477 l 129 174 z"},"0":{"x_min":0,"x_max":503,"ha":503,"o":"m 8 101 l 43 349 l 124 306 l 95 101 l 46 58 z m 46 371 l 81 619 l 131 662 l 168 619 l 140 421 z m 146 676 l 197 720 l 408 720 l 446 676 l 396 634 l 185 634 z m 380 421 l 408 619 l 458 662 l 495 619 l 460 371 z m 335 101 l 364 306 l 457 349 l 423 101 l 373 58 z m 57 44 l 108 86 l 319 86 l 357 44 l 307 0 l 96 0 z"},"F":{"x_min":0,"x_max":444,"ha":444,"o":"m -7 0 l 42 349 l 123 306 l 92 86 z m 45 371 l 92 706 l 167 619 l 139 421 z m 109 720 l 494 720 l 395 634 l 184 634 z m 64 360 l 152 407 l 363 407 l 438 360 l 351 320 l 140 320 z"},"`":{"x_min":0,"x_max":140,"ha":140,"o":"m 0 910 l 95 910 l 140 766 l 46 766 z"},"]":{"x_min":0,"x_max":274,"ha":274,"o":"m 153 414 l 182 619 l 281 706 l 234 371 z m 109 101 l 137 299 l 231 349 l 184 14 z m -36 0 l 63 86 l 93 86 l 168 0 z m 65 720 l 269 720 l 169 634 l 140 634 z"},"U":{"x_min":0,"x_max":501,"ha":501,"o":"m 7 101 l 42 349 l 123 306 l 94 101 l 45 58 z m 45 371 l 94 720 l 170 637 l 139 421 z m 379 421 l 410 637 l 508 720 l 459 371 z m 334 101 l 363 306 l 456 349 l 422 101 l 372 58 z m 56 44 l 107 86 l 318 86 l 356 44 l 306 0 l 95 0 z"},"N":{"x_min":0,"x_max":500,"ha":500,"o":"m -7 0 l 42 349 l 123 306 l 92 86 z m 45 371 l 92 706 l 167 619 l 139 421 z m 109 720 l 494 720 l 395 634 l 184 634 z m 379 421 l 407 619 l 507 706 l 460 371 z m 332 86 l 363 306 l 457 349 l 408 0 z"},"G":{"x_min":0,"x_max":497,"ha":497,"o":"m 7 101 l 42 349 l 123 306 l 94 101 l 45 58 z m 45 371 l 80 619 l 130 662 l 167 619 l 139 421 z m 145 676 l 196 720 l 490 720 l 395 634 l 184 634 z m 334 101 l 363 306 l 456 349 l 422 101 l 372 58 z m 56 44 l 107 86 l 318 86 l 356 44 l 306 0 l 95 0 z m 194 360 l 283 407 l 363 407 l 438 360 l 351 320 l 271 320 z"},"1":{"x_min":0,"x_max":503,"ha":503,"o":"m 256 421 l 284 619 l 383 706 l 336 371 z m 209 86 l 240 306 l 333 349 l 284 0 z m 109 720 l 371 720 l 271 634 l 184 634 z"},"5":{"x_min":0,"x_max":504,"ha":504,"o":"m 48 371 l 83 619 l 133 662 l 170 619 l 142 421 z m 148 676 l 199 720 l 494 720 l 398 634 l 187 634 z m 337 101 l 366 306 l 460 349 l 425 101 l 375 58 z m -4 0 l 92 86 l 321 86 l 359 44 l 309 0 z m 67 360 l 155 407 l 366 407 l 441 360 l 354 320 l 143 320 z"}}}
